<svg xmlns="http://www.w3.org/2000/svg" id="cafe" viewBox="0 0 115.32 29.63"><title>Cafe</title><g id="Layer_2" data-name="Layer 2"><g id="Layer_1-2" data-name="Layer 1"><polygon class="cls-1" points="101.96 2 101.96 2 101.96 0 13.36 0 13.36 2 13.36 2.7 24.93 2.7 24.93 29.63 25.64 29.63 25.64 2.7 89.39 2.7 89.39 29.63 90.09 29.63 90.09 2.7 101.96 2.7 101.96 2"></polygon><polygon class="cls-1" points="0 16.49 6.33 16.49 6.33 29.63 7.03 29.63 7.03 16.49 13.36 16.49 13.36 15.49 0 15.49 0 16.49"></polygon><polygon class="cls-1" points="101.96 15.49 101.96 16.49 108.29 16.49 108.29 29.63 108.99 29.63 108.99 16.49 115.32 16.49 115.32 15.49 101.96 15.49"></polygon></g></g></svg>