<svg xmlns="http://www.w3.org/2000/svg" id="lead" viewBox="0 0 20.24 87.55"><title>Lead</title><g id="Layer_2" data-name="Layer 2"><g id="Layer_1-2" data-name="Layer 1"><rect class="cls-1" x="1.05" y="13.1" width="2.09" height="13.92" transform="translate(-3.04 0.56) rotate(-8.79)"></rect><path class="cls-1" d="M20.21,80.32,18.92,59.48a8.21,8.21,0,0,0-1.53-4.21,4.68,4.68,0,0,0-4.7-1.83V34.11a4.6,4.6,0,0,0,.91.09,4.72,4.72,0,0,0,3.79-1.92,8.21,8.21,0,0,0,1.53-4.22L20.21,7.24a6.1,6.1,0,0,0-.67-3.47A6.62,6.62,0,0,0,15.71.37a6.69,6.69,0,0,0-5.19.34l-6,2.93A8.55,8.55,0,0,0,1.48,6.17l-.1.13A6.08,6.08,0,0,0,.23,10.91l.13.82.69-.11-.12-.81A5.32,5.32,0,0,1,2,6.72L2,6.59A8,8,0,0,1,4.85,4.27l6-2.93A6,6,0,0,1,15.48,1a5.91,5.91,0,0,1,3.43,3.06,5.4,5.4,0,0,1,.6,3.1L18.22,28a7.43,7.43,0,0,1-1.4,3.84,4,4,0,0,1-4.06,1.55L9,32.62a9.62,9.62,0,0,1-3.29-1.54,6,6,0,0,1-2.14-3.16l-.68.15a6.66,6.66,0,0,0,2.41,3.58,10.85,10.85,0,0,0,2.25,1.23V54.67A10.64,10.64,0,0,0,5.26,55.9a6.66,6.66,0,0,0-2.41,3.58l.68.14a5.93,5.93,0,0,1,2.14-3.15A9.44,9.44,0,0,1,9,54.93l3.8-.8a4,4,0,0,1,4.06,1.56,7.37,7.37,0,0,1,1.4,3.84l1.29,20.84a5.45,5.45,0,0,1-.6,3.1,6,6,0,0,1-8.08,2.74l-6-2.94A7.83,7.83,0,0,1,2.05,81l-.11-.15a5.33,5.33,0,0,1-1-4.08l.12-.81-.69-.11-.13.82a6.06,6.06,0,0,0,1.15,4.6l.11.15A8.38,8.38,0,0,0,4.54,83.9l6,2.93a6.63,6.63,0,0,0,5.19.35,6.59,6.59,0,0,0,3.82-3.39A6.05,6.05,0,0,0,20.21,80.32Z"></path><rect class="cls-1" x="-4.86" y="66.44" width="13.92" height="2.09" transform="translate(-64.91 59.24) rotate(-81.2)"></rect></g></g></svg>