<svg xmlns="http://www.w3.org/2000/svg" viewBox="0 0 1600 80" fill="#1e2428" fill-opacity="1" stroke-opacity="1" width="1600" height="80" preserveAspectRatio="xMaxYMin slice">
  <path d="M1600,16.3L1430,8l-71.5-8l-83.7,11.4l-79.7,10l-71.7,7.3l-56.2,5.6l-71.5-8l-62.3-4.8l-67.4,17.4l-48.7,6.6
    l-34-2.8l-27.3-9.5l-68-5.6l-92,2.5l-91.4,12.2l-30.2,11.1l-19-0.7l-18.2-6.3l-43.6,11.2l-54.3,5.9c-7.8,0.8-26.7,13.5-26.7,13.5
    l-42.1-26.9l-84.8-7.9l-48.1,6.9l-58,18.7L0,80l0,0h1600V16.3z"></path>
</svg>