<svg xmlns="http://www.w3.org/2000/svg" id="top-rope" viewBox="0 0 58.81 71.55"><title>Top Rope</title><g id="Layer_2" data-name="Layer 2"><g id="Layer_1-2" data-name="Layer 1"><polygon class="cls-1" points="21.5 14.07 21 14.12 21.92 22.77 22.42 22.71 22.8 26.31 26.12 25.96 25.73 22.36 26.24 22.31 25.32 13.66 24.82 13.72 24.43 10.12 21.12 10.47 21.5 14.07"></polygon><path class="cls-1" d="M58.64,6A7.41,7.41,0,0,0,49.87.15L42.62,1.6a9.45,9.45,0,0,0-4,1.83l-.14.12A6.67,6.67,0,0,0,36,8.15l-.09.91.69.07.1-.91A5.92,5.92,0,0,1,38.92,4.1L39.06,4a8.7,8.7,0,0,1,3.69-1.69L50,.84a6.73,6.73,0,0,1,5.11,1A6.58,6.58,0,0,1,58,6.12a6.07,6.07,0,0,1-.24,3.52l-7.32,22a8.21,8.21,0,0,1-2.61,3.75,4.46,4.46,0,0,1-4.84.52l-1.44-.72a.64.64,0,0,0,0-.41l-.1-.21a.65.65,0,0,0-.85-.32l-.2.1a.6.6,0,0,0-.21.14l-1-.51A10.76,10.76,0,0,1,36,31.37a6.53,6.53,0,0,1-1.41-4l-.7,0a7.4,7.4,0,0,0,1.56,4.49,11.43,11.43,0,0,0,3.34,2.79l1.24.62.08.18a.64.64,0,0,0,.1.13l-9.78,30.2H28.1L19.22,35.07l.08-.1L20,34.6a11.43,11.43,0,0,0,3.34-2.79,7.4,7.4,0,0,0,1.56-4.49l-.7,0a6.53,6.53,0,0,1-1.41,4A10.76,10.76,0,0,1,19.73,34l-.44.21,0,0a.65.65,0,0,0-.85-.32l-.21.1a.63.63,0,0,0-.31.85l0,.1-2.07,1A4.45,4.45,0,0,1,11,35.39a8.24,8.24,0,0,1-2.61-3.74L1.1,9.63A6.06,6.06,0,0,1,.86,6.11,6.58,6.58,0,0,1,3.69,1.84,6.72,6.72,0,0,1,8.8.84l7.26,1.45A8.77,8.77,0,0,1,19.74,4l.15.13a6,6,0,0,1,2.27,4.12l.1.91L23,9.06l-.09-.91a6.69,6.69,0,0,0-2.53-4.6l-.16-.12a9.37,9.37,0,0,0-4-1.83L8.94.16A7.34,7.34,0,0,0,3.3,1.26,7.29,7.29,0,0,0,.17,6a6.75,6.75,0,0,0,.27,3.9l7.32,22a8.92,8.92,0,0,0,2.83,4.07,5.19,5.19,0,0,0,3.26,1.15,5.1,5.1,0,0,0,2.34-.56l2.37-1.19h0l8.8,30.39h-.06a.61.61,0,0,0-.62.61v4.59a.62.62,0,0,0,.62.62h3.85a.61.61,0,0,0,.61-.62V66.34a.61.61,0,0,0-.61-.61h0l9.71-30,.08,0h0l1.65.82a5.1,5.1,0,0,0,2.34.56,5.19,5.19,0,0,0,3.26-1.15,9,9,0,0,0,2.84-4.07l7.31-22A6.77,6.77,0,0,0,58.64,6Z"></path><polygon class="cls-1" points="32.69 25.96 36 26.31 36.39 22.71 36.89 22.77 37.81 14.12 37.3 14.07 37.69 10.47 34.37 10.12 33.99 13.72 33.49 13.66 32.57 22.31 33.07 22.36 32.69 25.96"></polygon></g></g></svg>